<mxfile host="Electron" modified="2024-04-04T22:51:17.815Z" agent="Mozilla/5.0 (Macintosh; Intel Mac OS X 10_15_7) AppleWebKit/537.36 (KHTML, like Gecko) draw.io/24.1.0 Chrome/120.0.6099.109 Electron/28.1.0 Safari/537.36" etag="kj2lqiXULkMPMgCJq-I1" version="24.1.0" type="device" pages="8">
  <diagram name="Lookup" id="99cRSf7tibIR4LTFag5N">
    <mxGraphModel dx="1114" dy="769" grid="1" gridSize="10" guides="1" tooltips="1" connect="1" arrows="1" fold="1" page="1" pageScale="1" pageWidth="1400" pageHeight="1400" math="0" shadow="0">
      <root>
        <mxCell id="0" />
        <mxCell id="1" parent="0" />
        <mxCell id="lY5xhKyxChRA9pRhjd0q-141" value="body" style="whiteSpace=wrap;html=1;aspect=fixed;fontSize=22;container=0;" parent="1" vertex="1">
          <mxGeometry x="240" y="80" width="80" height="80" as="geometry" />
        </mxCell>
        <mxCell id="osK2eFMuCYya0lGRVM3H-3" value="i:j" style="shape=crossbar;whiteSpace=wrap;html=1;rounded=1;fontSize=22;labelBackgroundColor=default;" parent="1" vertex="1">
          <mxGeometry x="240" y="170" width="320" height="30" as="geometry" />
        </mxCell>
        <mxCell id="osK2eFMuCYya0lGRVM3H-8" value="body" style="whiteSpace=wrap;html=1;aspect=fixed;fontSize=22;container=0;" parent="1" vertex="1">
          <mxGeometry x="480" y="80" width="80" height="80" as="geometry" />
        </mxCell>
        <mxCell id="osK2eFMuCYya0lGRVM3H-27" value="..." style="text;html=1;align=center;verticalAlign=middle;resizable=0;points=[];autosize=1;strokeColor=none;fillColor=none;fontSize=20;" parent="1" vertex="1">
          <mxGeometry x="380" y="103" width="40" height="40" as="geometry" />
        </mxCell>
        <mxCell id="osK2eFMuCYya0lGRVM3H-54" style="edgeStyle=orthogonalEdgeStyle;rounded=0;orthogonalLoop=1;jettySize=auto;html=1;exitX=1;exitY=0.5;exitDx=0;exitDy=0;entryX=0.5;entryY=0;entryDx=0;entryDy=0;" parent="1" source="osK2eFMuCYya0lGRVM3H-53" target="lY5xhKyxChRA9pRhjd0q-141" edge="1">
          <mxGeometry relative="1" as="geometry" />
        </mxCell>
        <mxCell id="osK2eFMuCYya0lGRVM3H-53" value="&lt;span style=&quot;color: rgb(0, 0, 0); font-family: Helvetica; font-size: 18px; font-style: normal; font-variant-ligatures: normal; font-variant-caps: normal; font-weight: 400; letter-spacing: normal; orphans: 2; text-indent: 0px; text-transform: none; widows: 2; word-spacing: 0px; -webkit-text-stroke-width: 0px; white-space: normal; background-color: rgb(251, 251, 251); text-decoration-thickness: initial; text-decoration-style: initial; text-decoration-color: initial; float: none; display: inline !important;&quot;&gt;seek(i);&lt;/span&gt;" style="text;whiteSpace=wrap;html=1;fontSize=18;align=center;" parent="1" vertex="1">
          <mxGeometry x="200" y="30" width="70" height="30" as="geometry" />
        </mxCell>
        <mxCell id="osK2eFMuCYya0lGRVM3H-56" style="edgeStyle=orthogonalEdgeStyle;rounded=0;orthogonalLoop=1;jettySize=auto;html=1;exitX=1;exitY=0.5;exitDx=0;exitDy=0;entryX=0.5;entryY=0;entryDx=0;entryDy=0;" parent="1" source="osK2eFMuCYya0lGRVM3H-55" target="osK2eFMuCYya0lGRVM3H-8" edge="1">
          <mxGeometry relative="1" as="geometry" />
        </mxCell>
        <mxCell id="osK2eFMuCYya0lGRVM3H-55" value="&lt;span style=&quot;color: rgb(0, 0, 0); font-family: Helvetica; font-size: 18px; font-style: normal; font-variant-ligatures: normal; font-variant-caps: normal; font-weight: 400; letter-spacing: normal; orphans: 2; text-indent: 0px; text-transform: none; widows: 2; word-spacing: 0px; -webkit-text-stroke-width: 0px; white-space: normal; background-color: rgb(251, 251, 251); text-decoration-thickness: initial; text-decoration-style: initial; text-decoration-color: initial; float: none; display: inline !important;&quot;&gt;seek(j);&lt;/span&gt;" style="text;whiteSpace=wrap;html=1;fontSize=18;align=center;" parent="1" vertex="1">
          <mxGeometry x="440" y="30" width="70" height="30" as="geometry" />
        </mxCell>
        <mxCell id="osK2eFMuCYya0lGRVM3H-125" style="edgeStyle=orthogonalEdgeStyle;rounded=0;orthogonalLoop=1;jettySize=auto;html=1;exitX=1;exitY=0.5;exitDx=0;exitDy=0;entryX=0.38;entryY=0;entryDx=0;entryDy=0;entryPerimeter=0;" parent="1" edge="1">
          <mxGeometry relative="1" as="geometry">
            <mxPoint x="570" y="1205" as="sourcePoint" />
          </mxGeometry>
        </mxCell>
      </root>
    </mxGraphModel>
  </diagram>
  <diagram id="ylDirh2M8qI252BCmY9j" name="Run">
    <mxGraphModel dx="1114" dy="769" grid="1" gridSize="10" guides="1" tooltips="1" connect="1" arrows="1" fold="1" page="1" pageScale="1" pageWidth="1400" pageHeight="1400" math="0" shadow="0">
      <root>
        <mxCell id="0" />
        <mxCell id="1" parent="0" />
        <mxCell id="T9nI8R6rze_jWcYrUksr-1" value="body" style="whiteSpace=wrap;html=1;aspect=fixed;fontSize=22;container=0;" parent="1" vertex="1">
          <mxGeometry x="240" y="80" width="80" height="80" as="geometry" />
        </mxCell>
        <mxCell id="T9nI8R6rze_jWcYrUksr-3" value="i:j" style="shape=crossbar;whiteSpace=wrap;html=1;rounded=1;fontSize=22;labelBackgroundColor=default;" parent="1" vertex="1">
          <mxGeometry x="240" y="170" width="320" height="30" as="geometry" />
        </mxCell>
        <mxCell id="T9nI8R6rze_jWcYrUksr-4" value="body" style="whiteSpace=wrap;html=1;aspect=fixed;fontSize=22;container=0;" parent="1" vertex="1">
          <mxGeometry x="480" y="80" width="80" height="80" as="geometry" />
        </mxCell>
        <mxCell id="T9nI8R6rze_jWcYrUksr-5" value="..." style="text;html=1;align=center;verticalAlign=middle;resizable=0;points=[];autosize=1;strokeColor=none;fillColor=none;fontSize=20;" parent="1" vertex="1">
          <mxGeometry x="380" y="103" width="40" height="40" as="geometry" />
        </mxCell>
      </root>
    </mxGraphModel>
  </diagram>
  <diagram id="ocHXH0rSCpLF63VTY8hc" name="Spike">
    <mxGraphModel dx="1114" dy="769" grid="1" gridSize="10" guides="1" tooltips="1" connect="1" arrows="1" fold="1" page="1" pageScale="1" pageWidth="1400" pageHeight="1400" math="0" shadow="0">
      <root>
        <mxCell id="0" />
        <mxCell id="1" parent="0" />
        <mxCell id="BGWu2wN3qLHHeTp1Cg-F-1" value="body" style="whiteSpace=wrap;html=1;aspect=fixed;fontSize=22;container=0;" parent="1" vertex="1">
          <mxGeometry x="240" y="80" width="80" height="80" as="geometry" />
        </mxCell>
        <mxCell id="BGWu2wN3qLHHeTp1Cg-F-3" value="i:j-1" style="shape=crossbar;whiteSpace=wrap;html=1;rounded=1;fontSize=22;labelBackgroundColor=default;" parent="1" vertex="1">
          <mxGeometry x="240" y="170" width="320" height="30" as="geometry" />
        </mxCell>
        <mxCell id="BGWu2wN3qLHHeTp1Cg-F-4" value="body" style="whiteSpace=wrap;html=1;aspect=fixed;fontSize=22;container=0;" parent="1" vertex="1">
          <mxGeometry x="480" y="80" width="80" height="80" as="geometry" />
        </mxCell>
        <mxCell id="BGWu2wN3qLHHeTp1Cg-F-5" value="..." style="text;html=1;align=center;verticalAlign=middle;resizable=0;points=[];autosize=1;strokeColor=none;fillColor=none;fontSize=20;" parent="1" vertex="1">
          <mxGeometry x="380" y="103" width="40" height="40" as="geometry" />
        </mxCell>
        <mxCell id="BGWu2wN3qLHHeTp1Cg-F-6" value="tail" style="whiteSpace=wrap;html=1;aspect=fixed;fontSize=22;container=0;" parent="1" vertex="1">
          <mxGeometry x="560" y="80" width="80" height="80" as="geometry" />
        </mxCell>
        <mxCell id="BGWu2wN3qLHHeTp1Cg-F-7" value="j:j" style="shape=crossbar;whiteSpace=wrap;html=1;rounded=1;fontSize=22;labelBackgroundColor=default;" parent="1" vertex="1">
          <mxGeometry x="560" y="170" width="80" height="30" as="geometry" />
        </mxCell>
      </root>
    </mxGraphModel>
  </diagram>
  <diagram id="yCtodAs_s71iVF30l_JW" name="Sequence">
    <mxGraphModel dx="1114" dy="769" grid="1" gridSize="10" guides="1" tooltips="1" connect="1" arrows="1" fold="1" page="1" pageScale="1" pageWidth="1400" pageHeight="1400" math="0" shadow="0">
      <root>
        <mxCell id="0" />
        <mxCell id="1" parent="0" />
        <mxCell id="4W0TxlgAJsGKnrd83rxE-2" value="&lt;div style=&quot;font-size: 22px;&quot;&gt;head&lt;/div&gt;" style="whiteSpace=wrap;html=1;fontSize=22;container=0;points=[[0,0,0,0,0],[0,0.25,0,0,0],[0,0.5,0,0,0],[0,0.75,0,0,0],[0,1,0,0,0],[0.25,0,0,0,0],[0.25,1,0,0,0],[0.38,0,0,0,0],[0.5,0,0,0,0],[0.5,1,0,0,0],[0.63,0,0,0,0],[0.75,0,0,0,0],[0.75,1,0,0,0],[1,0,0,0,0],[1,0.25,0,0,0],[1,0.5,0,0,0],[1,0.75,0,0,0],[1,1,0,0,0]];labelBackgroundColor=none;fillColor=#f8cecc;strokeColor=#b85450;" parent="1" vertex="1">
          <mxGeometry x="240" y="80" width="130" height="80" as="geometry" />
        </mxCell>
        <mxCell id="4W0TxlgAJsGKnrd83rxE-3" value="&lt;div style=&quot;font-size: 22px;&quot;&gt;tail&lt;/div&gt;" style="whiteSpace=wrap;html=1;fontSize=22;container=0;points=[[0,0,0,0,0],[0,0.25,0,0,0],[0,0.5,0,0,0],[0,0.75,0,0,0],[0,1,0,0,0],[0.25,0,0,0,0],[0.25,1,0,0,0],[0.38,0,0,0,0],[0.5,0,0,0,0],[0.5,1,0,0,0],[0.63,0,0,0,0],[0.75,0,0,0,0],[0.75,1,0,0,0],[1,0,0,0,0],[1,0.25,0,0,0],[1,0.5,0,0,0],[1,0.75,0,0,0],[1,1,0,0,0]];fillColor=#dae8fc;strokeColor=#6c8ebf;" parent="1" vertex="1">
          <mxGeometry x="370" y="80" width="320" height="80" as="geometry" />
        </mxCell>
        <mxCell id="5rMPuzlm92_kN6Cwoq3O-1" value="a:b" style="shape=crossbar;whiteSpace=wrap;html=1;rounded=1;fontSize=22;labelBackgroundColor=default;" vertex="1" parent="1">
          <mxGeometry x="240" y="170" width="130" height="30" as="geometry" />
        </mxCell>
        <mxCell id="5rMPuzlm92_kN6Cwoq3O-2" value="b:c" style="shape=crossbar;whiteSpace=wrap;html=1;rounded=1;fontSize=22;labelBackgroundColor=default;" vertex="1" parent="1">
          <mxGeometry x="370" y="170" width="320" height="30" as="geometry" />
        </mxCell>
      </root>
    </mxGraphModel>
  </diagram>
  <diagram id="ROtP6oh92NQK-m-jbLzz" name="Stepper">
    <mxGraphModel dx="1114" dy="769" grid="1" gridSize="10" guides="1" tooltips="1" connect="1" arrows="1" fold="1" page="1" pageScale="1" pageWidth="1400" pageHeight="1400" math="0" shadow="0">
      <root>
        <mxCell id="0" />
        <mxCell id="1" parent="0" />
        <mxCell id="qFZ-Lf4aqcOAscgPBQhG-2" value="i:j" style="shape=crossbar;whiteSpace=wrap;html=1;rounded=1;fontSize=22;labelBackgroundColor=default;" parent="1" vertex="1">
          <mxGeometry x="240" y="170" width="450" height="30" as="geometry" />
        </mxCell>
        <mxCell id="qFZ-Lf4aqcOAscgPBQhG-3" style="edgeStyle=orthogonalEdgeStyle;rounded=0;orthogonalLoop=1;jettySize=auto;html=1;exitX=0.63;exitY=0;exitDx=0;exitDy=0;exitPerimeter=0;entryX=0;entryY=0.5;entryDx=0;entryDy=0;" parent="1" source="qFZ-Lf4aqcOAscgPBQhG-4" target="qFZ-Lf4aqcOAscgPBQhG-7" edge="1">
          <mxGeometry relative="1" as="geometry" />
        </mxCell>
        <mxCell id="qFZ-Lf4aqcOAscgPBQhG-4" value="&lt;div style=&quot;font-size: 22px;&quot;&gt;body&lt;/div&gt;" style="whiteSpace=wrap;html=1;fontSize=22;container=0;points=[[0,0,0,0,0],[0,0.25,0,0,0],[0,0.5,0,0,0],[0,0.75,0,0,0],[0,1,0,0,0],[0.25,0,0,0,0],[0.25,1,0,0,0],[0.38,0,0,0,0],[0.5,0,0,0,0],[0.5,1,0,0,0],[0.63,0,0,0,0],[0.75,0,0,0,0],[0.75,1,0,0,0],[1,0,0,0,0],[1,0.25,0,0,0],[1,0.5,0,0,0],[1,0.75,0,0,0],[1,1,0,0,0]];" parent="1" vertex="1">
          <mxGeometry x="240" y="80" width="130" height="80" as="geometry" />
        </mxCell>
        <mxCell id="qFZ-Lf4aqcOAscgPBQhG-5" value="..." style="text;html=1;align=center;verticalAlign=middle;resizable=0;points=[];autosize=1;strokeColor=none;fillColor=none;fontSize=20;" parent="1" vertex="1">
          <mxGeometry x="530" y="100" width="40" height="40" as="geometry" />
        </mxCell>
        <mxCell id="qFZ-Lf4aqcOAscgPBQhG-6" value="&lt;span style=&quot;color: rgb(0, 0, 0); font-family: Helvetica; font-size: 18px; font-style: normal; font-variant-ligatures: normal; font-variant-caps: normal; font-weight: 400; letter-spacing: normal; orphans: 2; text-indent: 0px; text-transform: none; widows: 2; word-spacing: 0px; -webkit-text-stroke-width: 0px; white-space: normal; background-color: rgb(251, 251, 251); text-decoration-thickness: initial; text-decoration-style: initial; text-decoration-color: initial; float: none; display: inline !important;&quot;&gt;seek(i);&lt;/span&gt;" style="text;whiteSpace=wrap;html=1;fontSize=18;align=center;" parent="1" vertex="1">
          <mxGeometry x="210" y="30" width="70" height="30" as="geometry" />
        </mxCell>
        <mxCell id="qFZ-Lf4aqcOAscgPBQhG-7" value="&lt;span style=&quot;color: rgb(0, 0, 0); font-family: Helvetica; font-size: 18px; font-style: normal; font-variant-ligatures: normal; font-variant-caps: normal; font-weight: 400; letter-spacing: normal; orphans: 2; text-indent: 0px; text-transform: none; widows: 2; word-spacing: 0px; -webkit-text-stroke-width: 0px; white-space: normal; background-color: rgb(251, 251, 251); text-decoration-thickness: initial; text-decoration-style: initial; text-decoration-color: initial; float: none; display: inline !important;&quot;&gt;next;&lt;/span&gt;" style="text;whiteSpace=wrap;html=1;align=center;fontSize=18;" parent="1" vertex="1">
          <mxGeometry x="350" y="30" width="50" height="30" as="geometry" />
        </mxCell>
        <mxCell id="qFZ-Lf4aqcOAscgPBQhG-8" value="&lt;span style=&quot;color: rgb(0, 0, 0); font-family: Helvetica; font-size: 18px; font-style: normal; font-variant-ligatures: normal; font-variant-caps: normal; font-weight: 400; letter-spacing: normal; orphans: 2; text-indent: 0px; text-transform: none; widows: 2; word-spacing: 0px; -webkit-text-stroke-width: 0px; white-space: normal; background-color: rgb(251, 251, 251); text-decoration-thickness: initial; text-decoration-style: initial; text-decoration-color: initial; float: none; display: inline !important;&quot;&gt;next;&lt;/span&gt;" style="text;whiteSpace=wrap;html=1;align=center;fontSize=18;" parent="1" vertex="1">
          <mxGeometry x="490" y="30" width="50" height="30" as="geometry" />
        </mxCell>
        <mxCell id="qFZ-Lf4aqcOAscgPBQhG-9" style="edgeStyle=orthogonalEdgeStyle;rounded=0;orthogonalLoop=1;jettySize=auto;html=1;exitX=1;exitY=0.5;exitDx=0;exitDy=0;entryX=0.38;entryY=0;entryDx=0;entryDy=0;entryPerimeter=0;" parent="1" source="qFZ-Lf4aqcOAscgPBQhG-6" target="qFZ-Lf4aqcOAscgPBQhG-4" edge="1">
          <mxGeometry relative="1" as="geometry" />
        </mxCell>
        <mxCell id="qFZ-Lf4aqcOAscgPBQhG-10" style="edgeStyle=orthogonalEdgeStyle;rounded=0;orthogonalLoop=1;jettySize=auto;html=1;exitX=0.63;exitY=0;exitDx=0;exitDy=0;exitPerimeter=0;entryX=0;entryY=0.5;entryDx=0;entryDy=0;" parent="1" source="qFZ-Lf4aqcOAscgPBQhG-11" target="qFZ-Lf4aqcOAscgPBQhG-8" edge="1">
          <mxGeometry relative="1" as="geometry" />
        </mxCell>
        <mxCell id="qFZ-Lf4aqcOAscgPBQhG-11" value="&lt;div style=&quot;font-size: 22px;&quot;&gt;body&lt;/div&gt;" style="whiteSpace=wrap;html=1;fontSize=22;container=0;points=[[0,0,0,0,0],[0,0.25,0,0,0],[0,0.5,0,0,0],[0,0.75,0,0,0],[0,1,0,0,0],[0.25,0,0,0,0],[0.25,1,0,0,0],[0.38,0,0,0,0],[0.5,0,0,0,0],[0.5,1,0,0,0],[0.63,0,0,0,0],[0.75,0,0,0,0],[0.75,1,0,0,0],[1,0,0,0,0],[1,0.25,0,0,0],[1,0.5,0,0,0],[1,0.75,0,0,0],[1,1,0,0,0]];" parent="1" vertex="1">
          <mxGeometry x="370" y="80" width="140" height="80" as="geometry" />
        </mxCell>
        <mxCell id="qFZ-Lf4aqcOAscgPBQhG-12" value="&lt;div style=&quot;font-size: 22px;&quot;&gt;body&lt;/div&gt;" style="whiteSpace=wrap;html=1;fontSize=22;container=0;points=[[0,0,0,0,0],[0,0.25,0,0,0],[0,0.5,0,0,0],[0,0.75,0,0,0],[0,1,0,0,0],[0.25,0,0,0,0],[0.25,1,0,0,0],[0.38,0,0,0,0],[0.5,0,0,0,0],[0.5,1,0,0,0],[0.63,0,0,0,0],[0.75,0,0,0,0],[0.75,1,0,0,0],[1,0,0,0,0],[1,0.25,0,0,0],[1,0.5,0,0,0],[1,0.75,0,0,0],[1,1,0,0,0]];" parent="1" vertex="1">
          <mxGeometry x="590" y="80" width="100" height="80" as="geometry" />
        </mxCell>
        <mxCell id="qFZ-Lf4aqcOAscgPBQhG-13" style="edgeStyle=orthogonalEdgeStyle;rounded=0;orthogonalLoop=1;jettySize=auto;html=1;exitX=1;exitY=0.5;exitDx=0;exitDy=0;entryX=0.38;entryY=0;entryDx=0;entryDy=0;entryPerimeter=0;" parent="1" source="qFZ-Lf4aqcOAscgPBQhG-7" target="qFZ-Lf4aqcOAscgPBQhG-11" edge="1">
          <mxGeometry relative="1" as="geometry" />
        </mxCell>
        <mxCell id="qFZ-Lf4aqcOAscgPBQhG-14" value="&lt;span style=&quot;color: rgb(0, 0, 0); font-family: Helvetica; font-size: 18px; font-style: normal; font-variant-ligatures: normal; font-variant-caps: normal; font-weight: 400; letter-spacing: normal; orphans: 2; text-indent: 0px; text-transform: none; widows: 2; word-spacing: 0px; -webkit-text-stroke-width: 0px; white-space: normal; background-color: rgb(251, 251, 251); text-decoration-thickness: initial; text-decoration-style: initial; text-decoration-color: initial; float: none; display: inline !important;&quot;&gt;next;&lt;/span&gt;" style="text;whiteSpace=wrap;html=1;align=center;fontSize=18;" parent="1" vertex="1">
          <mxGeometry x="560" y="30" width="50" height="30" as="geometry" />
        </mxCell>
        <mxCell id="qFZ-Lf4aqcOAscgPBQhG-15" style="edgeStyle=orthogonalEdgeStyle;rounded=0;orthogonalLoop=1;jettySize=auto;html=1;exitX=1;exitY=0.5;exitDx=0;exitDy=0;entryX=0.38;entryY=0;entryDx=0;entryDy=0;entryPerimeter=0;" parent="1" source="qFZ-Lf4aqcOAscgPBQhG-14" target="qFZ-Lf4aqcOAscgPBQhG-12" edge="1">
          <mxGeometry relative="1" as="geometry" />
        </mxCell>
      </root>
    </mxGraphModel>
  </diagram>
  <diagram id="H38vU5EgWEuZ6djayppF" name="Phase">
    <mxGraphModel dx="1114" dy="769" grid="1" gridSize="10" guides="1" tooltips="1" connect="1" arrows="1" fold="1" page="1" pageScale="1" pageWidth="1400" pageHeight="1400" math="0" shadow="0">
      <root>
        <mxCell id="0" />
        <mxCell id="1" parent="0" />
        <mxCell id="LW6mbRO_p9oHA3q-WbFZ-2" value="&lt;div style=&quot;font-size: 22px;&quot;&gt;body&lt;/div&gt;" style="whiteSpace=wrap;html=1;fontSize=22;container=0;points=[[0,0,0,0,0],[0,0.25,0,0,0],[0,0.5,0,0,0],[0,0.75,0,0,0],[0,1,0,0,0],[0.25,0,0,0,0],[0.25,1,0,0,0],[0.38,0,0,0,0],[0.5,0,0,0,0],[0.5,1,0,0,0],[0.63,0,0,0,0],[0.75,0,0,0,0],[0.75,1,0,0,0],[1,0,0,0,0],[1,0.25,0,0,0],[1,0.5,0,0,0],[1,0.75,0,0,0],[1,1,0,0,0]];" parent="1" vertex="1">
          <mxGeometry x="270" y="80" width="190" height="80" as="geometry" />
        </mxCell>
        <mxCell id="LW6mbRO_p9oHA3q-WbFZ-3" value="a:b" style="shape=crossbar;whiteSpace=wrap;html=1;rounded=1;fontSize=22;labelBackgroundColor=default;" parent="1" vertex="1">
          <mxGeometry x="240" y="200" width="280" height="30" as="geometry" />
        </mxCell>
        <mxCell id="LW6mbRO_p9oHA3q-WbFZ-4" value="c:d" style="shape=crossbar;whiteSpace=wrap;html=1;rounded=1;fontSize=22;labelBackgroundColor=default;" parent="1" vertex="1">
          <mxGeometry x="270" y="170" width="190" height="30" as="geometry" />
        </mxCell>
      </root>
    </mxGraphModel>
  </diagram>
  <diagram id="LmqkfQZsjqt1y_lOoipB" name="Switch">
    <mxGraphModel dx="2025" dy="1398" grid="1" gridSize="10" guides="1" tooltips="1" connect="1" arrows="1" fold="1" page="1" pageScale="1" pageWidth="1400" pageHeight="1400" math="0" shadow="0">
      <root>
        <mxCell id="0" />
        <mxCell id="1" parent="0" />
        <mxCell id="ILd-C26Kp2ohbokFAT7o-2" value="&lt;div style=&quot;font-size: 22px;&quot;&gt;head&lt;/div&gt;" style="whiteSpace=wrap;html=1;fontSize=22;container=0;points=[[0,0,0,0,0],[0,0.25,0,0,0],[0,0.5,0,0,0],[0,0.75,0,0,0],[0,1,0,0,0],[0.25,0,0,0,0],[0.25,1,0,0,0],[0.38,0,0,0,0],[0.5,0,0,0,0],[0.5,1,0,0,0],[0.63,0,0,0,0],[0.75,0,0,0,0],[0.75,1,0,0,0],[1,0,0,0,0],[1,0.25,0,0,0],[1,0.5,0,0,0],[1,0.75,0,0,0],[1,1,0,0,0]];labelBackgroundColor=none;fillColor=#f8cecc;strokeColor=#b85450;" parent="1" vertex="1">
          <mxGeometry x="280" y="40" width="160" height="80" as="geometry" />
        </mxCell>
        <mxCell id="ILd-C26Kp2ohbokFAT7o-3" value="&lt;div style=&quot;font-size: 22px;&quot;&gt;tail&lt;/div&gt;" style="whiteSpace=wrap;html=1;fontSize=22;container=0;points=[[0,0,0,0,0],[0,0.25,0,0,0],[0,0.5,0,0,0],[0,0.75,0,0,0],[0,1,0,0,0],[0.25,0,0,0,0],[0.25,1,0,0,0],[0.38,0,0,0,0],[0.5,0,0,0,0],[0.5,1,0,0,0],[0.63,0,0,0,0],[0.75,0,0,0,0],[0.75,1,0,0,0],[1,0,0,0,0],[1,0.25,0,0,0],[1,0.5,0,0,0],[1,0.75,0,0,0],[1,1,0,0,0]];fillColor=#dae8fc;strokeColor=#6c8ebf;" parent="1" vertex="1">
          <mxGeometry x="280" y="120" width="160" height="80" as="geometry" />
        </mxCell>
        <mxCell id="ILd-C26Kp2ohbokFAT7o-4" value="" style="shape=curlyBracket;whiteSpace=wrap;html=1;rounded=1;labelPosition=left;verticalLabelPosition=middle;align=right;verticalAlign=middle;" parent="1" vertex="1">
          <mxGeometry x="240" y="40" width="30" height="160" as="geometry" />
        </mxCell>
        <mxCell id="ILd-C26Kp2ohbokFAT7o-5" value="if cond" style="text;html=1;align=center;verticalAlign=middle;resizable=0;points=[];autosize=1;strokeColor=none;fillColor=none;fontSize=18;" parent="1" vertex="1">
          <mxGeometry x="440" y="60" width="80" height="40" as="geometry" />
        </mxCell>
        <mxCell id="ILd-C26Kp2ohbokFAT7o-6" value="otherwise" style="text;html=1;align=center;verticalAlign=middle;resizable=0;points=[];autosize=1;strokeColor=none;fillColor=none;fontSize=18;" parent="1" vertex="1">
          <mxGeometry x="440" y="140" width="100" height="40" as="geometry" />
        </mxCell>
      </root>
    </mxGraphModel>
  </diagram>
  <diagram id="qqWECY3lx-fzRtvrbXx1" name="Thunk">
    <mxGraphModel dx="1114" dy="769" grid="1" gridSize="10" guides="1" tooltips="1" connect="1" arrows="1" fold="1" page="1" pageScale="1" pageWidth="1400" pageHeight="1400" math="0" shadow="0">
      <root>
        <mxCell id="0" />
        <mxCell id="1" parent="0" />
        <mxCell id="hZ-Yrt6m5UshuDpYijMp-2" value="i:j" style="shape=crossbar;whiteSpace=wrap;html=1;rounded=1;fontSize=22;labelBackgroundColor=default;" parent="1" vertex="1">
          <mxGeometry x="290" y="170" width="190" height="30" as="geometry" />
        </mxCell>
        <mxCell id="hZ-Yrt6m5UshuDpYijMp-3" style="edgeStyle=orthogonalEdgeStyle;rounded=0;orthogonalLoop=1;jettySize=auto;html=1;exitX=0.75;exitY=0;exitDx=0;exitDy=0;exitPerimeter=0;entryX=0;entryY=0.5;entryDx=0;entryDy=0;" parent="1" source="hZ-Yrt6m5UshuDpYijMp-4" target="hZ-Yrt6m5UshuDpYijMp-6" edge="1">
          <mxGeometry relative="1" as="geometry" />
        </mxCell>
        <mxCell id="hZ-Yrt6m5UshuDpYijMp-4" value="&lt;div style=&quot;font-size: 22px;&quot;&gt;body&lt;/div&gt;" style="whiteSpace=wrap;html=1;fontSize=22;container=0;points=[[0,0,0,0,0],[0,0.25,0,0,0],[0,0.5,0,0,0],[0,0.75,0,0,0],[0,1,0,0,0],[0.25,0,0,0,0],[0.25,1,0,0,0],[0.38,0,0,0,0],[0.5,0,0,0,0],[0.5,1,0,0,0],[0.63,0,0,0,0],[0.75,0,0,0,0],[0.75,1,0,0,0],[1,0,0,0,0],[1,0.25,0,0,0],[1,0.5,0,0,0],[1,0.75,0,0,0],[1,1,0,0,0]];" parent="1" vertex="1">
          <mxGeometry x="290" y="80" width="190" height="80" as="geometry" />
        </mxCell>
        <mxCell id="hZ-Yrt6m5UshuDpYijMp-5" value="&lt;span style=&quot;color: rgb(0, 0, 0); font-family: Helvetica; font-size: 18px; font-style: normal; font-variant-ligatures: normal; font-variant-caps: normal; font-weight: 400; letter-spacing: normal; orphans: 2; text-indent: 0px; text-transform: none; widows: 2; word-spacing: 0px; -webkit-text-stroke-width: 0px; white-space: normal; background-color: rgb(251, 251, 251); text-decoration-thickness: initial; text-decoration-style: initial; text-decoration-color: initial; float: none; display: inline !important;&quot;&gt;preamble;&lt;/span&gt;" style="text;whiteSpace=wrap;html=1;fontSize=18;align=center;" parent="1" vertex="1">
          <mxGeometry x="230" y="30" width="90" height="30" as="geometry" />
        </mxCell>
        <mxCell id="hZ-Yrt6m5UshuDpYijMp-6" value="&lt;span style=&quot;color: rgb(0, 0, 0); font-family: Helvetica; font-size: 18px; font-style: normal; font-variant-ligatures: normal; font-variant-caps: normal; font-weight: 400; letter-spacing: normal; orphans: 2; text-indent: 0px; text-transform: none; widows: 2; word-spacing: 0px; -webkit-text-stroke-width: 0px; white-space: normal; background-color: rgb(251, 251, 251); text-decoration-thickness: initial; text-decoration-style: initial; text-decoration-color: initial; float: none; display: inline !important;&quot;&gt;epilogue;&lt;/span&gt;" style="text;whiteSpace=wrap;html=1;align=center;fontSize=18;" parent="1" vertex="1">
          <mxGeometry x="470" y="30" width="90" height="30" as="geometry" />
        </mxCell>
        <mxCell id="hZ-Yrt6m5UshuDpYijMp-7" style="edgeStyle=orthogonalEdgeStyle;rounded=0;orthogonalLoop=1;jettySize=auto;html=1;exitX=1;exitY=0.5;exitDx=0;exitDy=0;entryX=0.25;entryY=0;entryDx=0;entryDy=0;entryPerimeter=0;" parent="1" source="hZ-Yrt6m5UshuDpYijMp-5" target="hZ-Yrt6m5UshuDpYijMp-4" edge="1">
          <mxGeometry relative="1" as="geometry" />
        </mxCell>
      </root>
    </mxGraphModel>
  </diagram>
</mxfile>
